<svg width="68" height="18" viewBox="0 0 68 18" fill="none" xmlns="http://www.w3.org/2000/svg">
<path d="M2.376 14.4195V0.1875H0V14.4915C0 17.1315 1.032 17.8275 3.552 17.8275H4.008V15.7875H3.648C2.688 15.7875 2.376 15.4755 2.376 14.4195Z" fill="#222222"/>
<path d="M16.0933 14.1555H13.7893C13.6213 15.1635 12.9493 15.8355 11.7013 15.9315C11.5573 15.9555 11.4373 15.9795 11.2933 15.9795C9.54131 15.9795 8.65331 14.9475 8.50931 13.2435C8.48531 12.9315 8.46131 12.5955 8.43731 12.2355H16.1653V11.0115C16.1653 7.5075 14.2213 5.6595 11.1973 5.6595C8.05331 5.6595 6.01331 7.4595 6.01331 10.9155V12.6675C6.01331 16.1475 8.07731 17.9475 11.1733 17.9475C13.9333 17.9475 15.7813 16.5795 16.0933 14.1555ZM8.43731 10.6275C8.50931 8.7795 9.37331 7.6035 11.2213 7.6035C13.0213 7.6035 13.8133 8.5875 13.9093 10.7475H8.65331L8.43731 10.6275Z" fill="#222222"/>
<path d="M28.8902 14.1555H26.5862C26.4182 15.1635 25.7462 15.8355 24.4982 15.9315C24.3542 15.9555 24.2342 15.9795 24.0902 15.9795C22.3382 15.9795 21.4502 14.9475 21.3062 13.2435C21.2822 12.9315 21.2582 12.5955 21.2342 12.2355H28.9622V11.0115C28.9622 7.5075 27.0182 5.6595 23.9942 5.6595C20.8502 5.6595 18.8102 7.4595 18.8102 10.9155V12.6675C18.8102 16.1475 20.8742 17.9475 23.9702 17.9475C26.7302 17.9475 28.5782 16.5795 28.8902 14.1555ZM21.2342 10.6275C21.3062 8.7795 22.1702 7.6035 24.0182 7.6035C25.8182 7.6035 26.6102 8.5875 26.7062 10.7475H21.4502L21.2342 10.6275Z" fill="#222222"/>
<path d="M37.7271 17.7075L41.9991 5.8995H39.5271L36.4071 15.3075L33.3111 5.8995H30.7431L34.9671 17.7075H37.7271Z" fill="#222222"/>
<path d="M45.5226 3.7395C46.4586 3.7395 47.0826 3.1395 47.0826 2.3235C47.0826 1.4835 46.4586 0.907499 45.5226 0.907499C44.6106 0.907499 43.9626 1.4835 43.9626 2.3235C43.9626 3.1395 44.6106 3.7395 45.5226 3.7395ZM44.3466 17.7075H46.6986V5.8995H44.3466V17.7075Z" fill="#222222"/>
<rect x="55.0826" y="3.06738" width="12" height="12" rx="2" fill="#F2FF93"/>
</svg>
