<svg width="60" height="61" viewBox="0 0 60 61" fill="none" xmlns="http://www.w3.org/2000/svg">
<path d="M59.7234 29.788C57.7891 29.7927 55.8734 29.6083 53.975 29.2333C52.0781 28.8583 50.2359 28.3005 48.4484 27.5614C46.6609 26.8208 44.9641 25.913 43.3578 24.8364C41.75 23.7583 40.2641 22.5349 38.9 21.163C37.5297 19.7989 36.3047 18.313 35.2281 16.7067C34.1516 15.0989 33.2438 13.4021 32.5031 11.6161C31.7625 9.82861 31.2063 7.98643 30.8313 6.08799C30.4563 4.19111 30.2719 2.27393 30.2766 0.339551C30.2766 0.264551 30.25 0.198926 30.1953 0.144238C30.1422 0.0911135 30.0766 0.0629883 30 0.0629883C29.9234 0.0629883 29.8594 0.0911135 29.8047 0.144238C29.75 0.198926 29.7234 0.264551 29.7234 0.339551C29.7281 2.27393 29.5438 4.19111 29.1688 6.08799C28.7953 7.98643 28.2375 9.82861 27.4969 11.6161C26.7563 13.4021 25.8484 15.0989 24.7719 16.7067C23.6953 18.313 22.4703 19.7989 21.1 21.163C19.7359 22.5349 18.25 23.7583 16.6438 24.8364C15.0359 25.913 13.3391 26.8208 11.5516 27.5614C9.76563 28.3005 7.92188 28.8583 6.025 29.2333C4.12656 29.6083 2.21094 29.7927 0.276563 29.788C0.2 29.788 0.134375 29.8146 0.08125 29.8677C0.0265624 29.9224 0 29.988 0 30.063C0 30.1396 0.0265624 30.2052 0.08125 30.2599C0.134375 30.313 0.2 30.3396 0.276563 30.3396C2.21094 30.3349 4.12656 30.5192 6.025 30.8942C7.92188 31.2692 9.76406 31.8271 11.5516 32.5677C13.3391 33.3067 15.0359 34.2161 16.6422 35.2927C18.25 36.3692 19.7359 37.5927 21.1 38.9646C22.4703 40.3286 23.6953 41.8146 24.7719 43.4208C25.8484 45.0286 26.7563 46.7255 27.4969 48.5114C28.2375 50.2989 28.7953 52.1411 29.1688 54.0396C29.5438 55.9364 29.7281 57.8536 29.7234 59.788C29.7234 59.863 29.75 59.9286 29.8047 59.9833C29.8594 60.0364 29.9234 60.063 30 60.063C30.0766 60.063 30.1422 60.0364 30.1953 59.9833C30.25 59.9286 30.2766 59.863 30.2766 59.788C30.2766 43.5505 43.4859 30.3396 59.7234 30.3396C59.8 30.3396 59.8656 30.313 59.9188 30.2599C59.9734 30.2052 60 30.1396 60 30.063C60 29.988 59.9734 29.9224 59.9188 29.8677C59.8656 29.8146 59.8 29.788 59.7234 29.788ZM30 55.6958C29.7828 54.0833 29.4344 52.5021 28.9578 50.9474C28.4813 49.3927 27.8797 47.888 27.1562 46.4317C26.4328 44.9771 25.5953 43.5896 24.6453 42.2708C23.6938 40.9521 22.6422 39.7192 21.4891 38.5724C20.3438 37.4208 19.1125 36.3692 17.7938 35.4192C16.4766 34.4692 15.0906 33.6317 13.6359 32.9083C12.1812 32.1849 10.6766 31.5849 9.125 31.1083C7.57188 30.6302 5.98906 30.2817 4.37969 30.063C5.99063 29.8458 7.57188 29.4974 9.125 29.0192C10.6781 28.5427 12.1813 27.9427 13.6375 27.2192C15.0922 26.4942 16.4781 25.6583 17.7953 24.7067C19.1141 23.7567 20.3453 22.7052 21.4906 21.5536C22.6437 20.4083 23.6938 19.1755 24.6453 17.8583C25.5953 16.5411 26.4312 15.1536 27.1547 13.6989C27.8797 12.2442 28.4797 10.7411 28.9563 9.18799C29.4344 7.63486 29.7812 6.05361 30 4.44424C30.2188 6.05361 30.5672 7.63486 31.0438 9.18799C31.5203 10.7411 32.1219 12.2442 32.8453 13.6989C33.5688 15.1536 34.4047 16.5411 35.3563 17.8583C36.3063 19.1755 37.3578 20.4083 38.5094 21.5536C39.6562 22.7067 40.8875 23.7583 42.2062 24.7083C43.525 25.6599 44.9125 26.4974 46.3688 27.2208C47.825 27.9442 49.3297 28.5442 50.8844 29.0208C52.4375 29.4989 54.0203 29.8458 55.6313 30.063C42.3563 31.8849 31.8203 42.4208 30 55.6958Z" fill="#191919"/>
</svg>
