<svg width="60" height="61" viewBox="0 0 60 61" fill="none" xmlns="http://www.w3.org/2000/svg">
<path d="M59.9898 44.9169L59.9977 44.8857C59.9992 44.8779 59.9992 44.8685 59.9977 44.8607C60.0008 44.8419 60.0008 44.8216 59.9977 44.8028V0.338595C60.0008 0.318274 60.0008 0.299517 59.9977 0.279196C59.9992 0.271381 59.9992 0.263565 59.9977 0.254187L59.9898 0.224487C59.9898 0.213546 59.9789 0.204167 59.9742 0.194788C59.9711 0.186973 59.9664 0.179157 59.9601 0.171342C59.9398 0.138516 59.9117 0.110381 59.8789 0.0884969C59.8726 0.0838078 59.8679 0.0806811 59.8617 0.0775551L59.832 0.0603609L59.8023 0.0509822H59.7757C59.7554 0.0447302 59.7335 0.0400407 59.7116 0.0384773H15.2474C15.2286 0.0353513 15.2083 0.0353513 15.1895 0.0384773H15.1645L15.1333 0.047856L15.1036 0.0634871C15.0957 0.0666135 15.0879 0.071303 15.0817 0.075992C15.0645 0.0869339 15.0488 0.0994387 15.0363 0.113507L0.0773741 15.0865C0.0617428 15.099 0.0492379 15.1147 0.0398595 15.1319C0.033607 15.1381 0.0304809 15.1475 0.0257915 15.1553C0.0257915 15.1647 0.0148498 15.1725 0.0101604 15.1835L0.00234482 15.2132C0.000781806 15.2225 0.000781806 15.2303 0.00234482 15.2397C-0.000781605 15.2585 -0.000781605 15.2788 0.00234482 15.2976V59.7618C-0.000781605 59.7806 -0.000781605 59.8009 0.00234482 59.8196C0.000781806 59.829 0.000781806 59.8368 0.00234482 59.8462L0.0101604 59.8759C0.0148498 59.8869 0.0211021 59.8962 0.0273546 59.9056C0.030481 59.9134 0.033607 59.9212 0.0398595 59.9275C0.0601798 59.9619 0.088316 59.9885 0.121141 60.0103C0.128957 60.0166 0.136772 60.0197 0.144588 60.0228L0.174287 60.0385L0.203986 60.0479H0.230559C0.249316 60.0557 0.268074 60.0588 0.288394 60.0619H44.7526C44.7714 60.0635 44.7917 60.0635 44.8105 60.0619H44.837L44.8667 60.0525L44.8964 60.0369C44.9043 60.0338 44.9121 60.0291 44.9183 60.0244C44.9355 60.0135 44.9512 60.001 44.9637 59.9869L59.9226 45.0279C59.9383 45.0139 59.9508 44.9998 59.9601 44.9826C59.9664 44.9748 59.9695 44.9685 59.9726 44.9591C59.9789 44.9451 59.9852 44.931 59.9898 44.9169ZM15.5475 15.5977H44.4525V44.5027H15.5475V15.5977ZM45.0528 15.4226L59.4115 1.06388V44.5027H45.0528V15.4226ZM44.6276 14.9974H15.5475V0.638712H58.9863L44.6276 14.9974ZM14.9472 14.9974H1.01368L14.9472 1.06388V14.9974ZM0.588511 15.5977H14.9472V44.6778L0.588511 59.0365V15.5977ZM15.3724 45.103H44.4525V59.4617H1.01368L15.3724 45.103ZM45.0528 45.103H58.9863L45.0528 59.0365V45.103Z" fill="#191919"/>
</svg>
