<svg width="60" height="61" viewBox="0 0 60 61" fill="none" xmlns="http://www.w3.org/2000/svg">
<path d="M30.0008 60.063C13.4583 60.063 0 46.6047 0 30.0638C0 13.5213 13.4583 0.0629883 30.0008 0.0629883C46.5432 0.0629883 60 13.5213 60 30.0638C60 46.6062 46.5417 60.063 30.0008 60.063ZM30.0008 0.652005C13.7833 0.652005 0.589016 13.8463 0.589016 30.0638C0.589016 46.2797 13.7833 59.474 30.0008 59.474C46.2167 59.474 59.411 46.2797 59.411 30.0638C59.411 13.8463 46.2167 0.652005 30.0008 0.652005ZM30.0008 54.001C16.8002 54.001 6.06203 43.2627 6.06203 30.0638C6.06203 16.8648 16.8002 6.12501 30.0008 6.12501C43.2013 6.12501 53.938 16.8632 53.938 30.0638C53.938 43.2643 43.1997 54.001 30.0008 54.001ZM30.0008 6.71403C17.1252 6.71403 6.65104 17.1882 6.65104 30.0638C6.65104 42.9378 17.1252 53.4119 30.0008 53.4119C42.8748 53.4119 53.349 42.9362 53.349 30.0638C53.349 17.1898 42.8732 6.71403 30.0008 6.71403ZM30.0008 47.9374C29.4149 47.9374 28.8306 47.9092 28.2478 47.8514C27.665 47.7952 27.0869 47.7093 26.512 47.5952C25.9386 47.4812 25.3715 47.339 24.8106 47.1687C24.2497 46.9984 23.6997 46.8015 23.1591 46.5781C22.6185 46.3531 22.0889 46.1031 21.5733 45.8282C21.0562 45.5516 20.5546 45.2516 20.0672 44.9251C19.5813 44.6001 19.111 44.2517 18.6595 43.8799C18.2064 43.5096 17.772 43.1159 17.358 42.7018C16.944 42.2878 16.5518 41.855 16.18 41.4019C15.8097 40.9504 15.4613 40.4801 15.1348 39.9942C14.8098 39.5068 14.5098 39.0053 14.2333 38.4881C13.9567 37.9725 13.7067 37.4444 13.4833 36.9023C13.2599 36.3617 13.0615 35.8118 12.8927 35.2509C12.7224 34.6915 12.5803 34.1228 12.4662 33.5494C12.3522 32.9745 12.2662 32.3964 12.2084 31.8136C12.1506 31.2309 12.1225 30.6465 12.1225 30.0622C12.1225 29.4763 12.1506 28.892 12.2084 28.3092C12.2662 27.7265 12.3522 27.1484 12.4662 26.5734C12.5803 26 12.7224 25.4329 12.8912 24.872C13.0615 24.3127 13.2583 23.7611 13.4833 23.2206C13.7067 22.68 13.9567 22.1519 14.2333 21.6347C14.5082 21.1192 14.8098 20.6176 15.1348 20.1302C15.4597 19.6427 15.8081 19.174 16.18 18.7209C16.5518 18.2678 16.944 17.835 17.358 17.421C17.772 17.007 18.2048 16.6148 18.6579 16.243C19.111 15.8711 19.5797 15.5227 20.0672 15.1977C20.5531 14.8728 21.0546 14.5728 21.5718 14.2963C22.0873 14.0197 22.617 13.7697 23.1576 13.5463C23.6981 13.3213 24.2497 13.1245 24.809 12.9557C25.3699 12.7854 25.937 12.6433 26.5104 12.5292C27.0854 12.4151 27.6635 12.3292 28.2462 12.2714C28.829 12.2136 29.4133 12.1855 29.9992 12.1855C30.5835 12.1855 31.1679 12.2136 31.7506 12.2714C32.3334 12.3292 32.9115 12.4151 33.4864 12.5292C34.0598 12.6433 34.627 12.7854 35.1879 12.9542C35.7488 13.1245 36.2987 13.3213 36.8393 13.5463C37.3799 13.7697 37.9095 14.0197 38.4251 14.2963C38.9423 14.5712 39.4438 14.8728 39.9297 15.1977C40.4172 15.5227 40.8874 15.8711 41.339 16.243C41.792 16.6148 42.2248 17.007 42.6389 17.421C43.0529 17.835 43.4466 18.2678 43.8169 18.7209C44.1887 19.174 44.5371 19.6443 44.8621 20.1302C45.1871 20.6176 45.4886 21.1192 45.7636 21.6347C46.0402 22.1519 46.2901 22.68 46.5151 23.2206C46.7385 23.7627 46.9354 24.3127 47.1057 24.8735C47.276 25.4329 47.4182 26.0016 47.5322 26.575C47.6463 27.1499 47.7322 27.728 47.7885 28.3108C47.8463 28.8935 47.8759 29.4779 47.8759 30.0638C47.8744 30.6481 47.8447 31.2324 47.7869 31.8152C47.7291 32.3964 47.6432 32.9745 47.5291 33.5494C47.4135 34.1228 47.2713 34.69 47.101 35.2493C46.9307 35.8102 46.7338 36.3602 46.5089 36.9007C46.2854 37.4413 46.0339 37.9694 45.7589 38.485C45.4824 39.0006 45.1824 39.5021 44.8559 39.9896C44.5309 40.4755 44.1825 40.9457 43.8122 41.3973C43.4404 41.8503 43.0482 42.2831 42.6342 42.6972C42.2201 43.1096 41.7874 43.5033 41.3343 43.8736C40.8827 44.2455 40.4125 44.5939 39.9266 44.9189C39.4391 45.2438 38.9391 45.5454 38.422 45.8219C37.9064 46.0969 37.3783 46.3469 36.8377 46.5719C36.2972 46.7968 35.7472 46.9937 35.1863 47.164C34.627 47.3343 34.0598 47.4765 33.4864 47.5905C32.9115 47.7061 32.3334 47.7921 31.7522 47.8499C31.1694 47.9077 30.5851 47.9374 30.0008 47.9374ZM30.0008 12.7761C29.4336 12.7761 28.8696 12.8026 28.3056 12.8589C27.7416 12.9135 27.1823 12.9979 26.6276 13.1073C26.0714 13.2182 25.523 13.3557 24.9809 13.5197C24.4403 13.6838 23.9075 13.8744 23.3841 14.0916C22.8607 14.3088 22.3498 14.5494 21.8499 14.8165C21.3515 15.0837 20.8656 15.3743 20.3953 15.6883C19.925 16.0039 19.4704 16.3398 19.0329 16.6992C18.5939 17.0585 18.1751 17.4382 17.7752 17.8382C17.3752 18.2397 16.9955 18.6584 16.6362 19.0959C16.2769 19.5333 15.9394 19.988 15.6253 20.4583C15.3097 20.9285 15.0191 21.4144 14.7535 21.9144C14.4864 22.4128 14.2442 22.9237 14.027 23.4471C13.8114 23.9705 13.6208 24.5033 13.4552 25.0454C13.2911 25.586 13.1537 26.1344 13.0443 26.6906C12.9334 27.2452 12.8506 27.8046 12.7943 28.3686C12.7396 28.9326 12.7115 29.4966 12.7115 30.0638C12.7115 30.6294 12.7396 31.1934 12.7943 31.7574C12.8506 32.3214 12.9334 32.8807 13.0427 33.4354C13.1537 33.9916 13.2911 34.54 13.4552 35.0821C13.6192 35.6227 13.8099 36.1555 14.027 36.6789C14.2442 37.2023 14.4848 37.7132 14.752 38.2116C15.0191 38.7115 15.3097 39.1974 15.6253 39.6677C15.9394 40.138 16.2753 40.5926 16.6346 41.0301C16.994 41.4676 17.3736 41.8863 17.7752 42.2878C18.1751 42.6878 18.5939 43.0674 19.0313 43.4268C19.4688 43.7861 19.9234 44.122 20.3937 44.4376C20.8656 44.7517 21.3499 45.0423 21.8499 45.3095C22.3483 45.5766 22.8607 45.8172 23.3825 46.0344C23.9059 46.2516 24.4387 46.4422 24.9809 46.6062C25.523 46.7703 26.0714 46.9078 26.626 47.0187C27.1807 47.1296 27.7416 47.2124 28.304 47.2671C28.8681 47.3234 29.4321 47.3499 29.9992 47.3499C30.5648 47.3499 31.1304 47.3234 31.6928 47.2671C32.2569 47.2124 32.8162 47.1296 33.3708 47.0187C33.927 46.9078 34.4754 46.7703 35.0176 46.6062C35.5582 46.4422 36.0909 46.2516 36.6143 46.0344C37.1377 45.8188 37.6486 45.5766 38.1486 45.3095C38.647 45.0423 39.1329 44.7517 39.6032 44.4376C40.0734 44.122 40.5281 43.7861 40.9655 43.4268C41.403 43.0674 41.8233 42.6878 42.2233 42.2878C42.6232 41.8863 43.0029 41.4676 43.3622 41.0301C43.7216 40.5926 44.0575 40.138 44.3731 39.6677C44.6871 39.1974 44.9777 38.7115 45.2449 38.2131C45.5121 37.7132 45.7542 37.2023 45.9698 36.6789C46.187 36.1555 46.3776 35.6227 46.5417 35.0821C46.7057 34.54 46.8432 33.9916 46.9541 33.4354C47.0651 32.8807 47.1479 32.3214 47.2026 31.7574C47.2588 31.1934 47.2869 30.6294 47.2869 30.0638C47.2854 29.4966 47.2572 28.9326 47.201 28.3686C47.1448 27.8061 47.0619 27.2468 46.951 26.6922C46.8401 26.1375 46.7026 25.5891 46.537 25.047C46.3729 24.5064 46.1823 23.9736 45.9652 23.4502C45.748 22.9284 45.5058 22.4175 45.2402 21.9175C44.973 21.4191 44.6824 20.9348 44.3668 20.463C44.0528 19.9927 43.7153 19.5396 43.3575 19.1021C42.9982 18.6647 42.6185 18.2459 42.2186 17.8444C41.817 17.4444 41.3983 17.0648 40.9609 16.7054C40.5234 16.3477 40.0703 16.0102 39.6 15.6961C39.1298 15.3805 38.6439 15.0899 38.1455 14.8228C37.6455 14.5556 37.1346 14.3134 36.6128 14.0978C36.0894 13.8807 35.5582 13.69 35.016 13.5244C34.4739 13.3604 33.927 13.2229 33.3708 13.112C32.8162 13.001 32.2569 12.9167 31.6944 12.8604C31.1304 12.8042 30.5664 12.7761 30.0008 12.7761ZM30.0008 41.8753C29.6133 41.8753 29.2274 41.8566 28.8415 41.8191C28.4572 41.78 28.0744 41.7238 27.6947 41.6488C27.3166 41.5722 26.9416 41.4785 26.5714 41.366C26.2011 41.2551 25.837 41.1238 25.4793 40.977C25.1215 40.8286 24.7715 40.6629 24.4309 40.4801C24.0903 40.2989 23.7575 40.0989 23.4357 39.8849C23.1138 39.6693 22.8045 39.4396 22.5045 39.1943C22.2061 38.949 21.9202 38.6897 21.6452 38.4147C21.3718 38.1413 21.1124 37.8553 20.8671 37.5569C20.6218 37.257 20.3922 36.9476 20.1765 36.6258C19.9609 36.3039 19.7625 35.9727 19.5797 35.6305C19.3985 35.2899 19.2329 34.9399 19.0844 34.5822C18.936 34.2259 18.8063 33.8619 18.6939 33.4916C18.5814 33.1213 18.4876 32.7464 18.4126 32.3667C18.3361 31.9871 18.2798 31.6043 18.2423 31.2199C18.2048 30.834 18.1845 30.4481 18.1845 30.0622C18.1845 29.6747 18.2048 29.2888 18.2423 28.9045C18.2798 28.5186 18.3361 28.1358 18.4126 27.7577C18.4876 27.378 18.5814 27.0031 18.6939 26.6328C18.8063 26.2625 18.936 25.8985 19.0844 25.5407C19.2329 25.1829 19.3969 24.8345 19.5797 24.4923C19.7625 24.1517 19.9609 23.8205 20.1765 23.4987C20.3906 23.1768 20.6203 22.8659 20.8671 22.5675C21.1124 22.2675 21.3718 21.9816 21.6452 21.7082C21.9186 21.4348 22.2045 21.1754 22.5045 20.9301C22.8029 20.6848 23.1138 20.4536 23.4357 20.2395C23.7575 20.0239 24.0887 19.8255 24.4293 19.6427C24.7715 19.4599 25.1199 19.2959 25.4777 19.1474C25.8355 18.999 26.1995 18.8693 26.5698 18.7568C26.9401 18.6443 27.3151 18.5506 27.6947 18.4756C28.0728 18.3991 28.4556 18.3428 28.8415 18.3053C29.2258 18.2678 29.6117 18.2475 29.9992 18.2475C30.3851 18.2475 30.771 18.2663 31.1569 18.3053C31.5413 18.3428 31.9241 18.3991 32.3037 18.4756C32.6834 18.5506 33.0584 18.6443 33.4286 18.7568C33.7989 18.8693 34.1614 18.999 34.5192 19.1474C34.877 19.2959 35.2269 19.4599 35.5675 19.6427C35.9081 19.8255 36.2409 20.0239 36.5628 20.2395C36.8831 20.4536 37.194 20.6848 37.4939 20.9301C37.7924 21.1754 38.0783 21.4348 38.3517 21.7082C38.6251 21.9816 38.886 22.2675 39.1313 22.5675C39.3766 22.8659 39.6063 23.1768 39.8219 23.4987C40.0359 23.8205 40.2344 24.1517 40.4172 24.4939C40.6 24.8345 40.7656 25.1845 40.9124 25.5422C41.0609 25.8985 41.1921 26.2625 41.303 26.6328C41.4155 27.0031 41.5093 27.378 41.5858 27.7577C41.6608 28.1374 41.7171 28.5201 41.7561 28.9045C41.7936 29.2904 41.8124 29.6763 41.8124 30.0638C41.8124 30.4497 41.792 30.8356 41.7546 31.2199C41.7155 31.6058 41.6592 31.9871 41.5827 32.3667C41.5077 32.7464 41.414 33.1198 41.3015 33.4901C41.189 33.8603 41.0577 34.2244 40.9093 34.5806C40.7609 34.9384 40.5968 35.2884 40.414 35.629C40.2312 35.9696 40.0328 36.3008 39.8172 36.6226C39.6032 36.9445 39.3719 37.2538 39.1266 37.5538C38.8813 37.8522 38.622 38.1381 38.3486 38.4116C38.0751 38.685 37.7892 38.9443 37.4908 39.1896C37.1908 39.4349 36.8815 39.6661 36.5596 39.8802C36.2378 40.0958 35.9066 40.2942 35.566 40.477C35.2254 40.6583 34.8754 40.8239 34.5192 40.9723C34.1614 41.1207 33.7974 41.2504 33.4271 41.3629C33.0584 41.4754 32.6834 41.5707 32.3037 41.6457C31.9241 41.7222 31.5428 41.7785 31.1569 41.8175C30.7726 41.855 30.3867 41.8753 30.0008 41.8753ZM30.0008 18.8381C29.6321 18.8381 29.2665 18.8568 28.8993 18.8928C28.5337 18.9287 28.1712 18.9818 27.8103 19.0537C27.4494 19.1256 27.0932 19.2146 26.7417 19.3224C26.3901 19.4287 26.0433 19.5521 25.7042 19.6927C25.3652 19.8333 25.0324 19.9911 24.709 20.163C24.384 20.3364 24.0684 20.5255 23.7638 20.7301C23.4575 20.9348 23.1623 21.1535 22.8779 21.3863C22.5951 21.6191 22.3217 21.866 22.0623 22.1253C21.803 22.3862 21.5561 22.6581 21.3218 22.9424C21.089 23.2268 20.8702 23.5205 20.6656 23.8268C20.4625 24.133 20.2734 24.447 20.1 24.772C19.9266 25.0954 19.7688 25.4282 19.6282 25.7672C19.4875 26.1078 19.3641 26.4531 19.2579 26.8046C19.1516 27.1562 19.061 27.5124 18.9891 27.8733C18.9188 28.2342 18.8642 28.5967 18.8282 28.9623C18.7923 29.3295 18.7735 29.695 18.7735 30.0638C18.7735 30.4309 18.7923 30.7981 18.8282 31.1637C18.8642 31.5293 18.9188 31.8918 18.9891 32.2527C19.061 32.6136 19.1501 32.9698 19.2579 33.3213C19.3641 33.6729 19.4875 34.0181 19.6282 34.3587C19.7688 34.6978 19.9266 35.0306 20.1 35.354C20.2734 35.679 20.4609 35.993 20.6656 36.2992C20.8702 36.6054 21.089 36.8992 21.3218 37.1835C21.5546 37.4679 21.8014 37.7397 22.0623 38.0006C22.3217 38.26 22.5935 38.5069 22.8779 38.7397C23.1623 38.9724 23.4575 39.1912 23.7622 39.3959C24.0684 39.6005 24.3825 39.7896 24.7074 39.963C25.0324 40.1364 25.3636 40.2927 25.7027 40.4333C26.0433 40.5739 26.3886 40.6973 26.7401 40.8051C27.0916 40.9114 27.4479 41.0004 27.8088 41.0723C28.1697 41.1442 28.5321 41.1973 28.8993 41.2332C29.2649 41.2691 29.6305 41.2879 29.9992 41.2879C30.3664 41.2879 30.7335 41.2691 31.0991 41.2332C31.4647 41.1973 31.8288 41.1442 32.1881 41.0723C32.549 41.0004 32.9052 40.9114 33.2568 40.8051C33.6083 40.6973 33.9552 40.5739 34.2942 40.4333C34.6332 40.2927 34.966 40.1364 35.2894 39.963C35.6144 39.7896 35.9284 39.6005 36.2347 39.3959C36.5409 39.1927 36.8362 38.974 37.119 38.7397C37.4033 38.5069 37.6752 38.26 37.9361 38.0006C38.1955 37.7397 38.4423 37.4679 38.6751 37.1835C38.9095 36.8992 39.1282 36.6054 39.3313 36.2992C39.536 35.993 39.725 35.679 39.8984 35.354C40.0719 35.0306 40.2281 34.6978 40.3687 34.3587C40.5093 34.0197 40.6328 33.6729 40.7406 33.3213C40.8468 32.9698 40.9359 32.6136 41.0077 32.2527C41.0796 31.8918 41.1327 31.5293 41.1687 31.1637C41.2062 30.7981 41.2233 30.4309 41.2233 30.0638C41.2233 29.695 41.2046 29.3295 41.1687 28.9639C41.1327 28.5983 41.078 28.2342 41.0062 27.8749C40.9343 27.514 40.8452 27.1577 40.7374 26.8062C40.6312 26.4547 40.5062 26.1094 40.3656 25.7704C40.225 25.4298 40.0687 25.0985 39.8953 24.7751C39.7219 24.4501 39.5328 24.1361 39.3282 23.8299C39.1235 23.5252 38.9048 23.2299 38.672 22.9456C38.4392 22.6612 38.1923 22.3894 37.933 22.13C37.6736 21.8707 37.4018 21.6238 37.1174 21.391C36.8331 21.1567 36.5378 20.9379 36.2331 20.7348C35.9269 20.5301 35.6128 20.3411 35.2879 20.1677C34.9645 19.9942 34.6332 19.838 34.2942 19.6958C33.9536 19.5552 33.6083 19.4318 33.2568 19.3255C32.9052 19.2177 32.549 19.1287 32.1897 19.0568C31.8288 18.9849 31.4663 18.9303 31.1007 18.8943C30.7351 18.8568 30.3679 18.8396 30.0008 18.8381ZM30.0008 35.8133C29.6227 35.8133 29.2493 35.7774 28.879 35.704C28.5087 35.629 28.1478 35.5212 27.7994 35.3759C27.451 35.2321 27.1198 35.054 26.8057 34.8446C26.4917 34.6353 26.2011 34.3962 25.9339 34.1291C25.6667 33.8619 25.4293 33.5713 25.2183 33.2573C25.009 32.9448 24.8324 32.612 24.6871 32.2636C24.5434 31.9152 24.434 31.5558 24.3606 31.1856C24.2872 30.8153 24.2497 30.4403 24.2497 30.0638C24.2497 29.6857 24.2872 29.3123 24.3606 28.942C24.434 28.5701 24.5434 28.2108 24.6871 27.8624C24.8324 27.514 25.009 27.1827 25.2183 26.8687C25.4293 26.5547 25.6667 26.2641 25.9339 25.9969C26.2011 25.7297 26.4917 25.4907 26.8057 25.2813C27.1198 25.072 27.451 24.8939 27.7994 24.7501C28.1478 24.6064 28.5087 24.497 28.879 24.4236C29.2493 24.3486 29.6227 24.3127 30.0008 24.3127C30.3773 24.3127 30.7523 24.3486 31.1226 24.4236C31.4929 24.497 31.8522 24.6064 32.2006 24.7501C32.5506 24.8939 32.8818 25.072 33.1958 25.2813C33.5099 25.4907 33.7989 25.7297 34.0661 25.9969C34.3333 26.2641 34.5723 26.5547 34.7817 26.8687C34.991 27.1827 35.1691 27.514 35.3129 27.8624C35.4582 28.2108 35.5675 28.5701 35.641 28.942C35.7144 29.3123 35.7503 29.6857 35.7503 30.0638C35.7503 30.4403 35.7128 30.8137 35.6394 31.184C35.566 31.5543 35.4566 31.9136 35.3113 32.2636C35.1676 32.612 34.9895 32.9432 34.7801 33.2573C34.5707 33.5697 34.3317 33.8603 34.0645 34.1275C33.7974 34.3947 33.5083 34.6337 33.1943 34.8431C32.8802 35.0524 32.549 35.2306 32.2006 35.3743C31.8506 35.5196 31.4913 35.629 31.1226 35.7024C30.7523 35.7758 30.3773 35.8133 30.0008 35.8133ZM30.0008 24.9017C29.6617 24.9017 29.3258 24.9345 28.993 25.0001C28.6603 25.0673 28.3384 25.1642 28.0244 25.2938C27.7119 25.4235 27.415 25.5829 27.1323 25.7719C26.851 25.9594 26.5901 26.1734 26.3511 26.4125C26.1105 26.6531 25.8964 26.914 25.7089 27.1952C25.5199 27.4765 25.3605 27.7749 25.2308 28.0874C25.1012 28.4014 25.0043 28.7232 24.9371 29.056C24.8715 29.3888 24.8387 29.7247 24.8387 30.0638C24.8387 30.4028 24.8715 30.7372 24.9371 31.0699C25.0043 31.4027 25.1012 31.7246 25.2308 32.0386C25.3605 32.3511 25.5199 32.6495 25.7089 32.9307C25.8964 33.212 26.1105 33.4729 26.3511 33.7135C26.5901 33.9525 26.851 34.1666 27.1323 34.3556C27.415 34.5431 27.7119 34.7025 28.0244 34.8321C28.3384 34.9618 28.6603 35.0603 28.993 35.1259C29.3258 35.1915 29.6617 35.2243 30.0008 35.2243C30.3398 35.2243 30.6742 35.1915 31.007 35.1259C31.3397 35.0603 31.6632 34.9618 31.9756 34.8321C32.2881 34.7025 32.5865 34.5431 32.8677 34.3556C33.1505 34.1666 33.4099 33.9525 33.6505 33.7135C33.8895 33.4729 34.1036 33.212 34.2926 32.9307C34.4801 32.6495 34.6395 32.3511 34.7692 32.0386C34.8988 31.7246 34.9973 31.4027 35.0629 31.0699C35.1285 30.7372 35.1629 30.4028 35.1629 30.0638C35.1613 29.7247 35.1285 29.3888 35.0629 29.056C34.9957 28.7248 34.8973 28.4014 34.7676 28.0889C34.6379 27.7749 34.4786 27.478 34.2911 27.1968C34.102 26.914 33.888 26.6547 33.6489 26.4141C33.4099 26.175 33.149 25.961 32.8677 25.7719C32.585 25.5844 32.2881 25.4251 31.9756 25.2954C31.6616 25.1657 31.3397 25.0673 31.007 25.0017C30.6742 24.9345 30.3398 24.9017 30.0008 24.9017Z" fill="#191919"/>
</svg>
